/* XPM */
static char *Free_Converter_com_image_1_31973311[] = {
/* columns rows colors chars-per-pixel */
"267 46 30 1 ",
"  c black",
". c gray29",
"X c #505050",
"o c gray33",
"O c #585858",
"+ c gray36",
"@ c #606060",
"# c #646464",
"$ c #686868",
"% c gray43",
"& c #727272",
"* c #767676",
"= c gray48",
"- c #7E7E7E",
"; c gray51",
": c #868686",
"> c gray55",
", c #909090",
"< c gray58",
"1 c #989898",
"2 c gray61",
"3 c #A0A0A0",
"4 c #A4A4A4",
"5 c #AAAAAA",
"6 c #AEAEAE",
"7 c #B2B2B2",
"8 c #B6B6B6",
"9 c gray73",
"0 c gray",
"q c None",
/* pixels */
"qqqqqqqqqqqqqqqqqqqqqqqqqqqqqqqqqqqqqqqqqqqqqqqqqqqqqqqqqqqqqqqqqqqqqqqqqqqqqqqqqqqqqqqqqqqqqqqqqqqqqqqqqqqqqqqqqqqqqqqqqqqqqqqqqqqqqqqqqqqqqqqqqqqqqqqqqqqqqqqqqqqqqqqqqqqqqqqqqqqqqqqqqqqqqqqqqqqqqqqqqqqqqqqqqqqqqqqqqqqqqqqqqqqqqqqqqqqqqqqqqqqqqqqqqqqqqqqqqqqqqqqqqqq",
"qqqqqqqqqqqqqqqqqqqqqqqqqqqqqqqqqqqqqqqqqqqqqqqqqqqqqqqqqqqqqqqqqqqqqqqqqqqqqqqqqqqqqqqqqqqqqqqqqqqqqqqqqqqqqqqqqqqqqqqqqqqqqqqqqqqqqqqqqqqqqqqqqqqqqqqqqqqqqqqqqqqqqqqqqqqqqqqqqqqqqqqqqqqqqqqqqqqqqqqqqqqqqqqqqqqq0000qqqqqqqqqqqqqqqqqqqqqqqqqqqqqqqqqqqqqqqqqqqqqqqqqqq",
"qqqqqqqqqqqqqqqqqqqqqqqqqqqqqqqqqqqqqqqqqqqqqqqqqqqqqqqqqqqqqqqqqqqqqqqqqqqqqqqqqqqqqqqqqqqqqqqqqqqqqqqqqqqqqqqqqqqqqqqqqqqqqqqqqqqqqqqqqqqqqqqqqqqqqqqqqqqqqqqqqqqqqqqqqqqqqqqqqqqqqqqqqqqqqqqqqqqqqqqqqqqqqqq999999999qqqqqqqqqqqqqqqqqqqqqqqqqqqqqqqqqqqqqqqqqqqqqqqqqqq",
"qqqqqqqqqqqqqqqqqqqqqq888888888qqqqqqqqqqqqqqqqqqqqqqqqqqqqqqqqqqqqqqqqqqqqqqqqqqqqqqqqqqqqqqqqqqqqqqqqqqqqqqqqqqqqqqqqqqqqqqqqqqqqqqqqqqqqqqqqqqqqqqqqqqqqqqqqqqqqqqqqqqqqqqqqqqqqqqqqqqqqqqqqqqqqqqqqqqqqqqq8888888888qqqqqqqqqqqqqqqqqqqqqqqqqqqqqqqqqqqqqqqqqqqqqqqqqqq",
"qqqqqqqqqqqqqqqqq77777777777777qqqqqqqqqqqqqqqqqqqqqqqqqqqqqqqqqqqqqqqqqqqqqqqqqqqqqqqqqqqqqqqqqqqqqqqqqqqqqqqqqqqqqqqqqqqqqqqqqqqqqqqqqqqqqqqqqqqqqqqqqqqqqqqqqqqqqqqqqqqqqqqqqqqqqqqqqqqqqqqqqqqqqqqqqqqqqqq7777777777qqqqqqqqqqqqqqqqqqqqqqqqqqqqqqqqqqqqqqqqqqqqqqqqqqq",
"qqqqqqqqqqqqqqqq666666666666666qqqqqqqqqqqqqqqqqqqqqqqqqqqqqqqqqqqqqqqqqqqqqqqqqqqqqqqqqqqqqqqqqqqqqqqqqqqqqqqqqqqqqqqqqqqqqqqqqqqqqqqqqqqqqqqqqqqqqqqqqqqqqqqqqqqqqqqqqqqqqqqqqqqqqqqqqqqqqqqqqqqqqqqqqqqqqq66666666666qqqqqqqqqqqqqqqqqqqqqqqqqqqqqqqqqqqqqqqqqqqqqqqqqqq",
"qqqqqqqqqqqqqqqq55555555555555qqqqqqqqqqqqqqqqqqqqqqqqqqqqqqqqqqqqqqqqqqqqqqqqqqqqqqqqqqqqqqqqqqqqqqqqqqqqqqqqqqqqqqqqqqqqqqqqqqqqqqqqqqqqqqqqqqqqqqqqqqqqqqqqqqqqqqqqqqqqqqqqqqqqqqqqqqqqqqqqqqqqqqqqqqqqqqq5555555555qqqqqqqqqqqqqqqqqqqqqqqqqqqqqqqqqqqqqqqqqqqqqqqqqqqq",
"qqqqqqqqqqqqqqq444444444444444qqqqqqqqqqqqqqqqqqqqqqqqqqqqqqqqqqqqqqqqqqqqqqqqqqqqqqqqqqqqqqqqqqqqqqqqqqqqqqqqqqqqqqqqqqqqqqqqqqqqqqqqqqqqqqqqqqqqqqqqqqqqqqqqqqqqqqqqqqqqqqqqqqqqqqqqqqqqqqqqqqqqqqqqqqqqqqq44444qqqqqqqqqqqqqqqqqqqqqqqqqqqqqqqqqqqqqqqqqqqqqqqqqqqqqqqqq",
"qqqqqqqqqqqqqqq333333333333333qqqqqqqqqqqqqqqqqqqqqqqqqqqqqqqqqqqqqq33333333qqqqqqqqqqqqqqqqqqqqqqqqqqqqqqqqqqqqqqqqqqqqqqqqqqqqqqqqqqqqqqqqqqqqqqqqqqqqqqqqqqqqqqqqqqqqqqqqqqqqqqqqqqqqqqqqqqqqqqqqqqqqqqqqqqqqqqqqqqqqqqqqqqqqqqqqqqqqqqqqqqqqqqqqqqqqqqqqqqqqqqqqqqqqqqq",
"qqqqqqqqqqqqqqq222222222222222qqqqqqqqqqqqqqqqqqqqqqqqqqqqqqq2222222222222222222qqqqqqqqqqqqqqqqqqqqqqqqqqqqqqqqqqqqqqqqqq22222222qqqqqqqqqq2222222222qqqqqqqqqqqqqqqqqqqqqqqqqqqqqqqqqqqqqqqqqqqqqqqqqqqqqqqqqqqqqqqqqqqqqqqqqqqqqqqqqqqqqqqqqqqqqqqq2222222222qqqqqqqqqqq",
"qqqqqqqqqqqqqq1111111111111111qqqqqqqqqqqqqqqqqqqqqqqqqqqq111111111111111111111111qqqqqqqqqqqqqqqqqqqqqqqq11111111qqqqqq111111111111qqqqqq11111111111111qqqqqqqqqqqqqqqqqqqqqqqqqqqqqqqqqqqqqqqqqqqqqqqqqqqqqqqqqqqqqqqqqqqqqqqqqqqqq111111111qqqqqq11111111111111qqqqqqqqq",
"qqqqqqqqqqqqqq<<<<<<<<<<<<<<<qqqqqqqqqqqqqqqqqqqqqqqqqq<<<<<<<<<<<<<<<<<<<<<<<<<<<<<qqqqqqqqqqqqqqqqqq<<<<<<<<<<<<qqqqq<<<<<<<<<<<<<<qqqq<<<<<<<<<<<<<<<<<qqqqqqqqqqqqqqqqqqqqqqqqqqqqqqqqqqqqqqqqqqqqqqqqqqqqqqqqqqqqqqqqqqqqqqqqqq<<<<<<<<<<qqqqq<<<<<<<<<<<<<<<<qqqqqqqq",
"qqqqqqqqqqqqq,,,,,,,,,,,,,,,,qqqqqqqqqqqqqqqqqqqqqqqqq,,,,,,,,,,,,,,,,,,,,,,,,,,,,,,,qqqqqqqqqqqqqqqqq,,,,,,,,,,,,qqqq,,,,,,,,,,,,,,,,qq,,,,,,,,,,,,,,,,,,,qqqqqqqqqqqqqqqqqqqqqqqqqqqqqqqqqqqqqqqqqqqqqqqq,,,,,,,,,,,,qqqqqqqqqqqq,,,,,,,,,,,qqq,,,,,,,,,,,,,,,,,,,qqqqqqq",
"qqqqqqqqqqqqq>>>>>>>>>>>>>>>>qqqqqqqqqqqqqqqqqqqqqqq>>>>>>>>>>>>>>>>>>>>>>>>>>>>>>>>>>qqqqqqqqqqqqqqq>>>>>>>>>>>>>qq>>>>>>>>>>>>>>>>>>>>>>>>>>>>>>>>>>>>>>>>qqqqqqqqqqqqqqqqqqqqqqqqqqqqqqqqqqqqqqqqqqqqqq>>>>>>>>>>>>>qqqqqqqqqqqq>>>>>>>>>>>>q>>>>>>>>>>>>>>>>>>>>qqqqqqq",
"qqqqqqqqqqqqq::::::::::::::::qqqqqqqqqqqqqqqqqqqqqq:::::::::::::::::::::::::::::::::::qqqqqqqqqqqqqqq:::::::::::::::::::::::::::::::::::::::::::::::::::::::qqqqqqqqqqqqqqqqqqqqqqqqqqqqqqqqqqqqqqqqqqqqqq:::::::::::::qqqqqqqqqqq::::::::::::::::::::::::::::::::::qqqqqqq",
"qqqqqqqqqqqq;;;;;;;;;;;;;;;;qqqqqqqqqqqqqqqqqqqqqq;;;;;;;;;;;;;;qqqqqqqqq;;;;;;;;;;;;;;qqqqqqqqqqqqq;;;;;;;;;;;;;;;;;;;;;;;;;;;;;;;;;;;;;;;;;;;;;;;;;;;;;;;;;qqqqqqqqqqqqqqqqqqqqqqqqqqqqqqqqqqqqqqqqqqqq;;;;;;;;;;;;;;qqqqqqqqqqq;;;;;;;;;;;;;;;;;;;;;;;;;;;;;;;;;;;qqqqqq",
"qqqqqqqqqqqq----------------qqqqqqqqqqqqqqqqqqqqq--------------qqqqqqqqqqq-------------qqqqqqqqqqqqq----------------------------------------------------------qqqqqqqqqqqqqqqqqqqqqqqqqqqqqqqqqqqqqqqqqqq-------------qqqqqqqqqqq------------------------------------qqqqqq",
"qqqqqqqqqqqq================qqqqqqqqqqqqqqqqqqqqq=============qqqqqqqqqqqq=============qqqqqqqqqqqqq======================================qqq=================qqqqqqqqqqqqqqqqqqqqqqqqqqqqqqqqqqqqqqqqqq==============qqqqqqqqqqq====================================qqqqqq",
"qqqqqqqqqqq*****************qqqqqqqqqqqqqqqqqqqq*************qqqqqqqqqqqqq**************qqqqqqqqqqq******************qq*****************qqqqqqq***************qqqqqqqqqqqqqqqqqqqqqqqqq****qqqqqqqqqqqqq**************qqqqqqqqqq*****************qqqq****************qqqqqq",
"qqqqqqqqqqq&&&&&&&&&&&&&&&&&qqqqqqqqqqqqqqqqqqq&&&&&&&&&&&&&&qqqqqqqqqqqqq&&&&&&&&&&&&&&qqqqqqqqqqq&&&&&&&&&&&&&&&qqqqqq&&&&&&&&&&&&&&&qqqqqqqq&&&&&&&&&&&&&&&&qqqqqqqqqqqqq&&&&&&&&&&&&&&&&qqqqqqqqqqq&&&&&&&&&&&&&&&qqqqqqqqqq&&&&&&&&&&&&&&&qqqqqqq&&&&&&&&&&&&&&&qqqqqq",
"qqqqqqqqqq%%%%%%%%%%%%%%%%%qqqqqqqqqqqqqqqqqqqq%%%%%%%%%%%%%%qqqqqq%%%%%%%%%%%%%%%%%%%%%qqqqqqqqqqq%%%%%%%%%%%%%%qqqqqqq%%%%%%%%%%%%%%%qqqqqqqq%%%%%%%%%%%%%%%%qqqqqqqq%%%%%%%%%%%%%%%%%%%%qqqqqqqqqqqq%%%%%%%%%%%%%%%qqqqqqqqqq%%%%%%%%%%%%%%%qqqqqqq%%%%%%%%%%%%%%%qqqqqq",
"qqqqqqqqqq$$$$$$$$$$$$$$$$$qqqqqqqqqqqqqqqqqqq$$$$$$$$$$$$$$$$$$$$$$$$$$$$$$$$$$$$$$$$$$qqqqqqqqqq$$$$$$$$$$$$$$qqqqqqqq$$$$$$$$$$$$$$$qqqqqqqq$$$$$$$$$$$$$$$$qqqqqqqq$$$$$$$$$$$$$$$$$$$$qqqqqqqqqqqq$$$$$$$$$$$$$$$qqqqqqqqq$$$$$$$$$$$$$$$qqqqqqqq$$$$$$$$$$$$$$$qqqqqq",
"qqqqqqqqqq#################qqqqqqqqqqqqqqqqqqq##########################################qqqqqqqqqq##############qqqqqqqq###############qqqqqqqq################qqqqqqqq####################qqqqqqqqqqq################qqqqqqqqq###############qqqqqqqq###############qqqqqq",
"qqqqqqqqq@@@@@@@@@@@@@@@@@@qqqqqqqqqqqqqqqqqqq@@@@@@@@@@@@@@@@@@@@@@@@@@@@@@@@@@@@@@@@@@qqqqqqqqq@@@@@@@@@@@@@@@qqqqqqqq@@@@@@@@@@@@@@@qqqqqqqq@@@@@@@@@@@@@@@@qqqqqqq@@@@@@@@@@@@@@@@@@@@@qqqqqqqqqqq@@@@@@@@@@@@@@@@qqqqqqqq@@@@@@@@@@@@@@@qqqqqqqqq@@@@@@@@@@@@@@@qqqqqq",
"qqqqqqqqq++++++++++++++++++qqqqqqqqqqqqqqqqqq+++++++++++++++++++++++++++++++++++++++++++qqqqqqqqq+++++++++++++++qqqqqqqq+++++++++++++++qqqqqqqq++++++++++++++++qqqqqqq++++++++++++++++++++qqqqqqqqqqq++++++++++++++++qqqqqqqqq+++++++++++++++qqqqqqqqq+++++++++++++++qqqqqq",
"qqqqqqqqOOOOOOOOOOOOOOOOOOqqqqqqqqqqqqqqqqqqqOOOOOOOOOOOOOOOOOOOOOOOOOOOOOOOOOOOOOOOOOOqqqqqqqqqqOOOOOOOOOOOOOOqqqqqqqqqOOOOOOOOOOOOOOOqqqqqqqqOOOOOOOOOOOOOOOOqqqqqqqOOOOOOOOOOOOOOOOOOOOqqqqqqqqqqqOOOOOOOOOOOOOOOOqqqqqqqqqOOOOOOOOOOOOOOOqqqqqqqqqOOOOOOOOOOOOOOOqqqqqq",
"qqqqqqqqooooooooooooooooooqqqqqqqqqqqqqqqqqqqooooooooooooooooooooooooooooooooooooooooooqqqqqqqqqoooooooooooooooqqqqqqqqqoooooooooooooooqqqqqqqqooooooooooooooooqqqqqqoooooooooooooooooooooqqqqqqqqqqqooooooooooooooooqqqqqqqqooooooooooooooooqqqqqqqqooooooooooooooooqqqqqq",
"qqqqqqqqXXXXXXXXXXXXXXXXXXqqqqqqqqqqqqqqqqqqXXXXXXXXXXXXXXXXXXXXXXXXXXXXXXXXXqqqqqqqqqqqqqqqqqqqXXXXXXXXXXXXXXXqqqqqqqqXXXXXXXXXXXXXXXXqqqqqqqqXXXXXXXXXXXXXXXXqqqqqqXXXXXXXXXXXXXXXXXXXqqqqqqqqqqqqXXXXXXXXXXXXXXXXXqqqqqqqqXXXXXXXXXXXXXXXqqqqqqqqqXXXXXXXXXXXXXXXXqqqqqq",
"qqqqqqq...................qqqqqqqqqqqqqqqqqq.....................qqqqqqqqqqqqqqqqqqqqqqqqqqqqqq................qqqqqqqq................qqqqqqqq................qqqqqqq....qqqqqqqqqqqqqqqqqqqqqqqqqq.................qqqqqqq................qqqqqqqqq................qqqqqq",
"qqqqqqq                   qqqqqqqqqqqqqqqqqq                qqqqqqqqqqqqqqqqqqqqqqqqqqqqqqqqqqq                qqqqqqqq                qqqqqqqq                 qqqqqqqqqqqqqqqqqqqqqqqqqqqqqqqqqqq                  qqqqqqq                qqqqqqqqq                qqqqqq",
"qqqqqqq                   qqqqqqqqqq      qq                qqqqqqqqqqqqqqqqqqqqqqqqqqqqqqqqqqq                qqqqqqqq                qqqqqqqq                 qqqqqqqqqqqqqqqqqqqqqqqqqqqqqqqqqqq                  qqqqqqq                qqqqqqqqq                qqqqqq",
"qqqqqq                                     q                qqqqqqqqqqqqqqqqqqqqqq   qqqqqqqqq                qqqqqqqqq                qqqqqqqq                 qqqqqqqqqqqqqqqqqqqqqqqqqqqqqqqqqq                   qqqqqq                 qqqqqqqqq                qqqqqq",
"qqqqqq                                     q                 qqqqqqqqqqqqqqqq         qqqqqqqq                qqqqqqqqq                qqqqqqqq                 qqqqqqqqqqqqqqqqqqqqqqqqqqqqqqqqqq                  qqqqqqq                qqqqqqqqq                 qqqqqq",
"qqqqq                                      q                  qqqqqqqq                qqqqqqq                 qqqqqqqq                 qqqqqqqq                 qqqqqqqqqqqqqqqqqqqqqqqqqqqqqqqqqq                  qqqqqq                 qqqqqqqqq                 qqqqqq",
"qqqqq                                      q                                          qqqqqqq                 qqqqqqqq                 qqqqqqqq                 qqqqqqqqqqqqqqqqqqqqqqqqqqqqqqqqq                   qqqqqq                 qqqqqqqqq                 qqqqqq",
"qqqqq                                      q                                          qqqqqqq                 qqqqqqqq                 qqqqqqqq                 qqqqqqqqqqqqqqqqqqqqqqqqqqqqqqqqq                   qqqqq                  qqqqqqqqq                 qqqqqq",
"qqqq                                       q                                          qqqqqq                  qqqqqqqq                 qqqqqqqq                 qqqqqqqqqqqqqqqqqqqqqqqqqqqqqqqq                    qqqqq                 qqqqqqqqqq                 qqqqqq",
"qqqq                                       q                                          qqqqqq                 qqqqqqqqq                qqqqqqqqq                 qqqqqqqqqqqqqqqqqqqqqqqqqqqqqqqq                    qqqqq                 qqqqqqqqq                  qqqqqq",
"qqq                                        qq                                         qqqqq                  qqqqqqqqq                qqqqqqqqq                 qqqqqqqqqqqqqqqqqqqqqqqqqqqqqqqq                    qqqq                  qqqqqqqqq                  qqqqqq",
"qqq                                        qqq                                        qqqqq                  qqqqqqqq                 qqqqqqqqq                 qqqqqqqqqqqqqqqqqqqqqqqqqqqqqqq                     qqqq                  qqqqqqqqq                  qqqqqq",
"qqq                                        qqq                                        qqqqq                  qqqqqqqq                 qqqqqqqqq                 qqqqqqqqqqqqqqqqqqqqqqqqqqqqqqq                    qqqq                   qqqqqqqqq                  qqqqqq",
"qq                                         qqqq                                      qqqqq                   qqqqqqqq                 qqqqqqqqq                  qqqqqqqqqqqqqqqqqqqqqqqqqqqqq                     qqqq                  qqqqqqqqqq                  qqqqqq",
"qq                                         qqqqqq                                    qqqqq                  qqqqqqqqq                 qqqqqqqqq                  qqqqqqqqqqqqqqqqqqqqqqqqqqqqq                     qqqq                  qqqqqqqqqq                  qqqqqq",
"qq                                        qqqqqqqqq                                 qqqqqq                  qqqqqqqqq                 qqqqqqqqq                  qqqqqqqqqqqqqqqqqqqqqqqqqqqqq                     qqqq                  qqqqqqqqq                   qqqqqq",
"qq                                        qqqqqqqqqqq                          qqqqqqqqqqq                 qqqqqqqqqq                 qqqqqqqqqq                qqqqqqqqqqqqqqqqqqqqqqqqqqqqqq                    qqqqq                 qqqqqqqqqqq                 qqqqqqq",
"qqqqqqqqqqqqqqqqqqqqqqqqqqqqqqqqqqqqqqqqqqqqqqqqqqqqqqqqqqq           qqqqqqqqqqqqqqqqqqqqqqqqqqqqqqqqqqqqqqqqqqqqqqqqqqqqqqqqqqqqqqqqqqqqqqqqqqqqqqqqqqqqqqqqqqqqqqqqqqqqqqqqqqqqqqqqqqqqqqqqqqqqqqqqqqqqqqqqqqqqqqqqqqqqqqqqqqqqqqqqqqqqqqqqqqqqqqqqqqqqqqqqqqqqqqqqqqqqq"
};
